<svg xmlns="http://www.w3.org/2000/svg" width="22" height="21" fill="#231F20" viewBox="0 0 21.77 21.33"><path d="M21.77 12.15c0-2.39-.34-4.79-.3-7.13 0-.79-.09-1.54-.15-2.28a5.29 5.29 0 01-.15-1.06c-.27-.18-.23-.68-.47-.85C20.28.6 19.5.72 19 .61S17.7.49 17.06.45c-1.94-.1-4-.08-6-.08A43.25 43.25 0 015.37 0h-2.2c-.1 0-.11.1-.23.08a9.25 9.25 0 00-1.59.3 2.81 2.81 0 01-.68.3c-.15.2-.52.15-.62.38s.18.45 0 .61v.91c.17.13 0 .58.08.83v1c0 1.28.13 2.4.08 3.72a38.7 38.7 0 01.08 9.41 14.11 14.11 0 01.46 1.75 7.61 7.61 0 00.68 1.52 6.73 6.73 0 001.9.23 4.34 4.34 0 001.14.3c2.84-.21 5.5-.15 8.43-.23a34.61 34.61 0 008.28-.23c.2-.13.13-.53.23-.76-.06-.38.21-.45.23-.76.11-2.36.14-4.79.13-7.21zm-13-6.22a9.43 9.43 0 012.43-.3 10.79 10.79 0 011.9.46c.12.18-.24.55.15.68v.08c.06 0 .15 0 .15.08a1.92 1.92 0 011.06.38c.45.05.54.48 1.14.38a2.18 2.18 0 00-.08.83 11.88 11.88 0 01.3 4.25 1.86 1.86 0 00-.3.68c-.31.32-.48.79-.84 1.06a1.08 1.08 0 01-.45.53c-.12.21-.21.45-.46.53s-.58 0-.83-.08a3.44 3.44 0 00-1.21.61c-.82-.1-1.65-.17-2.43-.3a1.94 1.94 0 00-.83-.3 2 2 0 00-.83-.5c-.1-.13-.34-.12-.46-.23s-.23-.23-.46-.23c-.12-.41-.44-.62-.53-1.06a5.55 5.55 0 01-.46-1.21 13.41 13.41 0 01.38-3.8c.35-.59.78-1.09 1.14-1.67.25 0 .37-.09.38-.3.31.05.43-.07.68-.08s.28-.36.47-.5zM7.11 3.19A3.27 3.27 0 017 2.13c0-.28.28-.28.3-.53 0-.07-.09-.06-.15-.08.13-.15.7-.1.83 0 .13.54-.35.46-.53.68 0 .17.32 0 .46.08 0 .85-.06 1.5 0 2.2h-.42c0 .23.23.23.46.23-.06.29.09.36.08.61-.23.15-.72 0-1.06.08-.11-.6.23-1.4.14-2.21zm-.68-1.6c.09 0 .13 0 .15.08.18.25 0 .68-.08.91-.17-.18-.02-.68-.07-.99zm.15 1.82c-.13-.07-.17-.24-.15-.46.13.05.17.25.15.47zm0 1.37c-.06.14-.08 0-.08-.15s.09.05.08.15zM6.43 5c.17 0 .08.22.23.23 0 .19-.28.18-.38.08s.11-.19.15-.31zM4.08 3.79c0-.11 0-.21-.08-.23-.07-.73.13-1.41 0-2 .25-.15.77 0 1.14-.08v1.18a.49.49 0 01-.38.08c-.05.28.32.13.38.3a9.3 9.3 0 00.15 2.43c-.57-.06-.91.11-1.44.08.1-.61 0-1.43.53-1.59-.01-.15-.26-.06-.3-.17zm-.53 0c-.2 0-.22-.53-.08-.61.33.01.25.51.08.61zm-.15 1a3.67 3.67 0 00.08-.68c.22 0 .25.76-.09.67zm.23-2c-.26.05-.27-.27-.15-.38s.26.21.14.32zm0-1.14c0 .16-.05.2-.08.3-.18 0-.08-.22-.23-.23.02-.15.19-.11.3-.13zm-.24 3.66c.15 0 .11.34-.08.23a.36.36 0 00.08-.23zm-.68-3.72c0 .26-.44.32-.38 0zm-1 .08c0 .22-.33.18-.38.38-.2-.17.1-.47.39-.38zm-.46.76L2 1.82c0-.12.07-.13.08-.23h.23c.1.38-.26.3-.3.53s-.07.13-.08.23a4.67 4.67 0 01.08 1c-.27 0-.28.28-.61.23-.03-.44-.19-.69-.13-1.15zm.08 3.26V4.1c.2-.18.4-.36.61-.53.29.49.18 1.39.46 1.9-.27.15-.74.11-1.06.22zm18.23 11.09a21.35 21.35 0 01-.38 2.81c-2.89.12-6 0-8.88.15-.2 0-.27 0-.23-.23-.25 0-.26.25-.53.23.2-.34.44-.9.15-1.29-.8 0-.8.82-1.14 1.29-.69-.05-1.14.13-1.82.08.18-.71.75-1 .91-1.75-.39-.55-1 .14-1.21.45-.2.48-.56.81-.76 1.29h-1c.24-.47.49-.93.76-1.37s.62-.74.68-1.37c-.16-.28-.42 0-.68 0-.12.18-.27.33-.38.53a8.63 8.63 0 00-.68 1.14c-.18.21-.33 0-.53.23-.39.27-.58.74-1 1-.17-.06 0-.36.15-.38 0-.18-.1-.55.08-.61a2.41 2.41 0 01.38-.91c.12-.74.52-1.2.68-1.9-.56.1-.67.64-1 1a7.29 7.29 0 00-.68 1.29c-.17-.13 0-.58-.08-.84.12-.59.3-1.12.38-1.75A2.61 2.61 0 003 15a.71.71 0 00-.08-.76.54.54 0 00-.45.3c-.19 0-.19.51-.3.3 0-2.59-.45-4.81-.46-7.44 0-.33-.18-.42-.23-.68 1.63 0 3.12.09 4.78.23a3.45 3.45 0 01-.3.38 1.88 1.88 0 00-.38.3A12.67 12.67 0 005 13.82a4.39 4.39 0 001 1.44c.91.49 1.63 1.15 2.51 1.67a14.15 14.15 0 005.54 0 4.32 4.32 0 00.68-.38c1.36-1.24 2.75-2.46 3-4.86v-1.37a4.93 4.93 0 00-1.75-3.64c.33-.22 1.1 0 1.67.08a5.8 5.8 0 00.68 0 8.77 8.77 0 011.44 0c.14.19.11.54.23.76-.06 1.68-.19 3.3-.15 5.09.1.45.13 1 .23 1.44a17 17 0 01-.52 2.73zm.38-11.16c-.64-.12-1.23-.28-1.9-.38.07-.33.8 0 1-.23.38-.22.29-.92.3-1.52a5 5 0 00.08-1.06C19 1.48 17.63 2 16.53 2a6 6 0 00-.3 2.66c.17.49 1 .29 1.52.46-.14.33-.69.06-1 .08s-.71-.05-1-.15c-2.29.08-4.28 0-6.53.15a17.2 17.2 0 00-.08-3.64h3.11c-.34.36-.91.51-1.29.84a3.15 3.15 0 00-1.14.91c.25.13.54-.25.76-.38s.48-.38.83-.46a5.9 5.9 0 011.67-.91 3.54 3.54 0 011 .08c1.28 0 2.46.13 3.8.08a13 13 0 012 .3 7.11 7.11 0 01.3.91 25.58 25.58 0 01-.24 2.69zM14.1 1.9c.11 0 0-.09 0 0zm0 0a3.26 3.26 0 00-1.37.68 3.31 3.31 0 001.37-.68zm1.06.61c.11 0 0-.09 0 0zm-1.75.91a6 6 0 001.75-.91c-.44 0-.59.32-1 .38-.16.21-.59.25-.74.53zm-.68-.84c-.11 0 0 .09 0 0zm-.73.61c.11 0 0-.09 0 0zm0 .07c.06 0 .07 0 .08-.08s-.08.04-.08.08zm-.08.08c.06 0 .07 0 .08-.08s-.1.03-.1.08zm-.83.61a2.06 2.06 0 00.83-.61 2 2 0 00-.86.61zm2.28 1c.53 0 .75-.42 1.21-.53.28-.3.78-.38 1-.76-.56 0-.77.4-1.22.53-.36.28-.79.4-1.02.74zm-2.28-1c-.32-.07 0 .23 0 0zm-.53.38s.12 0 .08-.08-.15.04-.11.08zm2.81.61c-.11 0 0 .09 0 0zM12.2 6.76c-.22-.23-.68-.23-1-.38a5.32 5.32 0 00-1.75.23l-.91.45a4.08 4.08 0 01-.76.53c-.21.22-.35.51-.68.61 0 .22-.17.28-.3.38s-.09.31-.23.38 0 .29-.08.3a18.36 18.36 0 00.68 4.18c.29.62 1 .85 1.44 1.29a6.32 6.32 0 002.13.53 3.19 3.19 0 01.91-.08 5.09 5.09 0 002.81-1.44 1.58 1.58 0 01.45-.68c-.25-.67.29-1.1.46-1.6A8.52 8.52 0 0014.78 8c-.26-.58-.92-.75-1.37-1.14-.06 0-.15 0-.15-.08a1.36 1.36 0 00-1.06-.02zm-3.42 4.32c-.11-.06-.11-.24-.15-.38.26-.07.12.24.15.38zm.08.3c0-.12.08 0 .08.08s-.08.01-.08-.07zm.46-2.05c0-.09.08 0 .08 0s-.08.05-.08.01zM11 7.21c-.2.26 0 .58.08.84-.32-.05-.59-.89-.08-.84zm.38 3.95s.05-.1.08-.08-.07.1-.09.08zm.74 2.84c0-.11.07 0 .15 0a.08.08 0 01-.15 0zm2.2-2.58c-.23-.06-.14.21-.38.15a1.57 1.57 0 01.23-.46c.14.07.18.18.16.35zm-1.14-3.8a2.75 2.75 0 01.61.38 2 2 0 00.38.53 20.57 20.57 0 01.15 2.35c-.26.1-.44.27-.68.38a4.44 4.44 0 01-1.9-.46c-.17-.26-.36-.5-.53-.76V9a4.2 4.2 0 00.46-.61c.23-.13.51-.2.45-.61a.38.38 0 01-.12-.19c.16 0 .25.16.38.23.37.02.46-.2.81-.15z"/></svg>