<svg xmlns="http://www.w3.org/2000/svg">
  <symbol id="logo-footer" viewBox="0 0 101.63 33.95">
    <path d="M19.15 21.45c-.08-2.68-.51-5.35-.48-8 0-2.17.39-4.41-.36-6.49a4.46 4.46 0 01.14-.71c.19-1-3.27-.49-3.81.46a.86.86 0 00-.37 1l.1.26a78.19 78.19 0 01-2.62 9.41c-.4 1.19-.89 2.35-1.3 3.53a35.66 35.66 0 01-1.65-3.46C7.43 14 6.19 10.55 4.52 7.25c.19-1.53-3.2-1.37-3.87 0a8.64 8.64 0 00-.44 5.21 45.24 45.24 0 01.38 6.11c0 4 .36 7.94.42 11.92a1 1 0 00-.1 1.41 3.08 3.08 0 00.57.55c.9.72 3.5.11 3.5-1.27 0-4.13-.32-8.23-.43-12.36v-1.21l.17.43a33.8 33.8 0 002.19 4.65 21.46 21.46 0 011.8 4.68.77.77 0 00-.23.71.34.34 0 00.25.36c.64.55 1.84.27 2.51 0a6.07 6.07 0 00.83-.42c.35-.21.88-.68.73-1.16l-.09-.28a24.34 24.34 0 001-3.93A24.91 24.91 0 0115 18.52c.05.62.11 1.24.16 1.86.2 2.55 0 5.07 0 7.63a11.7 11.7 0 00.22 2.46 10.55 10.55 0 01.28 1.89.78.78 0 00.34 1.42 3.32 3.32 0 002.78-.78c1.2-1.11.63-2.84.36-4.24-.47-2.31.08-4.93.01-7.31zM27.51 22.12c-.07-2-.77-3.86-.77-5.87a48.66 48.66 0 00-.15-6.89c-.11-.73-4.06.1-3.92 1a38.87 38.87 0 01.16 6.35 39.16 39.16 0 00.73 5.9c.27 2-.08 4.16.15 6.21.11 1 .75 2.74.09 3.58-.42.53 1.47.34 1.55.33a3.86 3.86 0 002.3-1c.65-.83.2-2.43 0-3.36a54.62 54.62 0 01-.14-6.25zM43.84 18.8C41.78 16 38 18 35.28 17.26c-1.38-.39-1.39-2.27-1.39-3.4a35.22 35.22 0 00-.27-4.15 3.4 3.4 0 01.75-2.9 4.38 4.38 0 01.81-.34 8.23 8.23 0 011.07-.09c1.55-.07 4.61.23 4 2.48-.27 1 3.6.43 3.88-.64 1.21-4.6-7.28-3.71-9.69-3.08-2.21.59-4.65 1.84-4.78 4.4a36 36 0 00.34 3.59c.06 1.39-.2 2.78.29 4.12 1.08 3 5.52 1.58 7.78 1.75 3.85.29 2.7 5.47 2.75 7.88 0 1.29 1.18 3.43.21 4.51-.6.66-2 .7-2.79.77s-2.2.31-2.74-.46c-1-1.42.09-3.8-.12-5.42-.12-.92-4.07-.1-3.92 1 .34 2.63-1.4 6.14 2.4 6.6a18.09 18.09 0 007.5-.93 8.85 8.85 0 003.24-1.79c1-.94.69-2.35.42-3.55-.69-2.88.72-6.24-1.18-8.81zM61.17 18.61c-.12-3.78-.69-7.51-.71-11.3 0-2-4-1.31-4 .34 0 3.61.5 7.17.68 10.76v.22c-2 0-3.9.18-5.85.25.2-4.63-.61-9.23-.43-13.86 0-.58-3.87-.09-3.92 1-.17 4.47.59 8.91.45 13.39-.06 2.14-.24 4.26-.26 6.4a21.72 21.72 0 00.33 3.26 8.32 8.32 0 01.18 3.32c-.24.77 3.56.29 3.86-.69.54-1.78-.22-4-.41-5.84a31 31 0 01.08-5.25 29.73 29.73 0 016.08 0q.13 2.07.32 4.13c.11 1.16.18 2.31.2 3.48a10.62 10.62 0 01-.22 3.46c-.77 2.06 3.15 1.89 3.72.36.7-1.87.5-4.2.38-6.16-.08-2.39-.41-4.82-.48-7.27zM78.1 23.09a73.73 73.73 0 00-3.62-7.8c1-1.95 2-3.9 2.93-5.89.83-1.81 1.45-3.82 3.08-5.09.57-.45.55-.9-.25-1a4.44 4.44 0 00-2.77.74 10.74 10.74 0 00-3.2 4.27c-.93 2.05-1.9 4.06-2.91 6.08l-.22.44a1.14 1.14 0 00-.64 1.27c-.79 1.56-1.6 3.12-2.5 4.61-.3-5.53-1-11.06-1.15-16.6 0-1.27-4-.48-3.92 1 .24 6.87 1.22 13.72 1.29 20.59-.3.31-.19.49.05.6 0 1.75-.06 3.5-.21 5.25-.47.75.46 1.14 1.08 1.14h.1c.74 0 2.63-.35 2.72-1.36.19-2.1.25-4.2.23-6.29a31.36 31.36 0 004.06-5.63 29.36 29.36 0 012 4.58c.86 2.74 2.3 5.26 3.13 8 .54 1.81 4.46.74 3.92-1-.9-2.65-2.3-5.2-3.2-7.91zM101.6 18.45c-.21-.83-1.37-.85-2.27-.77v-1c-.12-2.66-.16-5.38-.39-8-.21-2.46-1.58-3.34-4-3.25a24.28 24.28 0 00-7.48 1.4 7 7 0 00-4.56 5.68c-.55 3 .24 6.22.37 9.25.15 3.5.07 7 .06 10.52 0 .57 3.92 0 3.92-1V23c0-.82-.05-1.63-.1-2.44 1.37-.59 3.69 0 5.05.14a15.29 15.29 0 003.24-.29c0 2.31.11 4.63.2 6.94 0 1.18.48 3.53-.35 4.51-.44.52 1.48.34 1.55.33a4 4 0 002.3-1c.95-1.12.46-3.79.4-5.13-.08-1.91-.1-3.82-.14-5.74 1.15-.32 2.42-1.02 2.2-1.87zM87 18.3c-.1-1.25-.22-2.49-.3-3.74-.16-2.33.12-5.58 2.29-7a7.14 7.14 0 012.35-.44 3.67 3.67 0 012.83.19c1.21.8.91 3.66.91 4.87 0 2 .21 4 .31 6a13.68 13.68 0 01-1.68.08c-2.31-.05-4.56-.41-6.71.04zM24.12 6.65a3.16 3.16 0 001.48-.52l.25-.13c.52-.34 1-.83.73-1.36a7.72 7.72 0 01-.42-3.41c0-1-1-1.25-1.78-1.17s-2.17.53-2.17 1.47a16.06 16.06 0 00.11 3 2.56 2.56 0 00-.1.36.69.69 0 00.14.59v.46a.9.9 0 00.43.53 2.18 2.18 0 001.33.18z"/>
  </symbol>
  <symbol id="instagram-icon" viewBox="0 0 21.77 21.33">
    <path d="M21.77 12.15c0-2.39-.34-4.79-.3-7.13 0-.79-.09-1.54-.15-2.28a5.29 5.29 0 01-.15-1.06c-.27-.18-.23-.68-.47-.85C20.28.6 19.5.72 19 .61S17.7.49 17.06.45c-1.94-.1-4-.08-6-.08A43.25 43.25 0 015.37 0h-2.2c-.1 0-.11.1-.23.08a9.25 9.25 0 00-1.59.3 2.81 2.81 0 01-.68.3c-.15.2-.52.15-.62.38s.18.45 0 .61v.91c.17.13 0 .58.08.83v1c0 1.28.13 2.4.08 3.72a38.7 38.7 0 01.08 9.41 14.11 14.11 0 01.46 1.75 7.61 7.61 0 00.68 1.52 6.73 6.73 0 001.9.23 4.34 4.34 0 001.14.3c2.84-.21 5.5-.15 8.43-.23a34.61 34.61 0 008.28-.23c.2-.13.13-.53.23-.76-.06-.38.21-.45.23-.76.11-2.36.14-4.79.13-7.21zm-13-6.22a9.43 9.43 0 012.43-.3 10.79 10.79 0 011.9.46c.12.18-.24.55.15.68v.08c.06 0 .15 0 .15.08a1.92 1.92 0 011.06.38c.45.05.54.48 1.14.38a2.18 2.18 0 00-.08.83 11.88 11.88 0 01.3 4.25 1.86 1.86 0 00-.3.68c-.31.32-.48.79-.84 1.06a1.08 1.08 0 01-.45.53c-.12.21-.21.45-.46.53s-.58 0-.83-.08a3.44 3.44 0 00-1.21.61c-.82-.1-1.65-.17-2.43-.3a1.94 1.94 0 00-.83-.3 2 2 0 00-.83-.5c-.1-.13-.34-.12-.46-.23s-.23-.23-.46-.23c-.12-.41-.44-.62-.53-1.06a5.55 5.55 0 01-.46-1.21 13.41 13.41 0 01.38-3.8c.35-.59.78-1.09 1.14-1.67.25 0 .37-.09.38-.3.31.05.43-.07.68-.08s.28-.36.47-.5zM7.11 3.19A3.27 3.27 0 017 2.13c0-.28.28-.28.3-.53 0-.07-.09-.06-.15-.08.13-.15.7-.1.83 0 .13.54-.35.46-.53.68 0 .17.32 0 .46.08 0 .85-.06 1.5 0 2.2h-.42c0 .23.23.23.46.23-.06.29.09.36.08.61-.23.15-.72 0-1.06.08-.11-.6.23-1.4.14-2.21zm-.68-1.6c.09 0 .13 0 .15.08.18.25 0 .68-.08.91-.17-.18-.02-.68-.07-.99zm.15 1.82c-.13-.07-.17-.24-.15-.46.13.05.17.25.15.47zm0 1.37c-.06.14-.08 0-.08-.15s.09.05.08.15zM6.43 5c.17 0 .08.22.23.23 0 .19-.28.18-.38.08s.11-.19.15-.31zM4.08 3.79c0-.11 0-.21-.08-.23-.07-.73.13-1.41 0-2 .25-.15.77 0 1.14-.08v1.18a.49.49 0 01-.38.08c-.05.28.32.13.38.3a9.3 9.3 0 00.15 2.43c-.57-.06-.91.11-1.44.08.1-.61 0-1.43.53-1.59-.01-.15-.26-.06-.3-.17zm-.53 0c-.2 0-.22-.53-.08-.61.33.01.25.51.08.61zm-.15 1a3.67 3.67 0 00.08-.68c.22 0 .25.76-.09.67zm.23-2c-.26.05-.27-.27-.15-.38s.26.21.14.32zm0-1.14c0 .16-.05.2-.08.3-.18 0-.08-.22-.23-.23.02-.15.19-.11.3-.13zm-.24 3.66c.15 0 .11.34-.08.23a.36.36 0 00.08-.23zm-.68-3.72c0 .26-.44.32-.38 0zm-1 .08c0 .22-.33.18-.38.38-.2-.17.1-.47.39-.38zm-.46.76L2 1.82c0-.12.07-.13.08-.23h.23c.1.38-.26.3-.3.53s-.07.13-.08.23a4.67 4.67 0 01.08 1c-.27 0-.28.28-.61.23-.03-.44-.19-.69-.13-1.15zm.08 3.26V4.1c.2-.18.4-.36.61-.53.29.49.18 1.39.46 1.9-.27.15-.74.11-1.06.22zm18.23 11.09a21.35 21.35 0 01-.38 2.81c-2.89.12-6 0-8.88.15-.2 0-.27 0-.23-.23-.25 0-.26.25-.53.23.2-.34.44-.9.15-1.29-.8 0-.8.82-1.14 1.29-.69-.05-1.14.13-1.82.08.18-.71.75-1 .91-1.75-.39-.55-1 .14-1.21.45-.2.48-.56.81-.76 1.29h-1c.24-.47.49-.93.76-1.37s.62-.74.68-1.37c-.16-.28-.42 0-.68 0-.12.18-.27.33-.38.53a8.63 8.63 0 00-.68 1.14c-.18.21-.33 0-.53.23-.39.27-.58.74-1 1-.17-.06 0-.36.15-.38 0-.18-.1-.55.08-.61a2.41 2.41 0 01.38-.91c.12-.74.52-1.2.68-1.9-.56.1-.67.64-1 1a7.29 7.29 0 00-.68 1.29c-.17-.13 0-.58-.08-.84.12-.59.3-1.12.38-1.75A2.61 2.61 0 003 15a.71.71 0 00-.08-.76.54.54 0 00-.45.3c-.19 0-.19.51-.3.3 0-2.59-.45-4.81-.46-7.44 0-.33-.18-.42-.23-.68 1.63 0 3.12.09 4.78.23a3.45 3.45 0 01-.3.38 1.88 1.88 0 00-.38.3A12.67 12.67 0 005 13.82a4.39 4.39 0 001 1.44c.91.49 1.63 1.15 2.51 1.67a14.15 14.15 0 005.54 0 4.32 4.32 0 00.68-.38c1.36-1.24 2.75-2.46 3-4.86v-1.37a4.93 4.93 0 00-1.75-3.64c.33-.22 1.1 0 1.67.08a5.8 5.8 0 00.68 0 8.77 8.77 0 011.44 0c.14.19.11.54.23.76-.06 1.68-.19 3.3-.15 5.09.1.45.13 1 .23 1.44a17 17 0 01-.52 2.73zm.38-11.16c-.64-.12-1.23-.28-1.9-.38.07-.33.8 0 1-.23.38-.22.29-.92.3-1.52a5 5 0 00.08-1.06C19 1.48 17.63 2 16.53 2a6 6 0 00-.3 2.66c.17.49 1 .29 1.52.46-.14.33-.69.06-1 .08s-.71-.05-1-.15c-2.29.08-4.28 0-6.53.15a17.2 17.2 0 00-.08-3.64h3.11c-.34.36-.91.51-1.29.84a3.15 3.15 0 00-1.14.91c.25.13.54-.25.76-.38s.48-.38.83-.46a5.9 5.9 0 011.67-.91 3.54 3.54 0 011 .08c1.28 0 2.46.13 3.8.08a13 13 0 012 .3 7.11 7.11 0 01.3.91 25.58 25.58 0 01-.24 2.69zM14.1 1.9c.11 0 0-.09 0 0zm0 0a3.26 3.26 0 00-1.37.68 3.31 3.31 0 001.37-.68zm1.06.61c.11 0 0-.09 0 0zm-1.75.91a6 6 0 001.75-.91c-.44 0-.59.32-1 .38-.16.21-.59.25-.74.53zm-.68-.84c-.11 0 0 .09 0 0zm-.73.61c.11 0 0-.09 0 0zm0 .07c.06 0 .07 0 .08-.08s-.08.04-.08.08zm-.08.08c.06 0 .07 0 .08-.08s-.1.03-.1.08zm-.83.61a2.06 2.06 0 00.83-.61 2 2 0 00-.86.61zm2.28 1c.53 0 .75-.42 1.21-.53.28-.3.78-.38 1-.76-.56 0-.77.4-1.22.53-.36.28-.79.4-1.02.74zm-2.28-1c-.32-.07 0 .23 0 0zm-.53.38s.12 0 .08-.08-.15.04-.11.08zm2.81.61c-.11 0 0 .09 0 0zM12.2 6.76c-.22-.23-.68-.23-1-.38a5.32 5.32 0 00-1.75.23l-.91.45a4.08 4.08 0 01-.76.53c-.21.22-.35.51-.68.61 0 .22-.17.28-.3.38s-.09.31-.23.38 0 .29-.08.3a18.36 18.36 0 00.68 4.18c.29.62 1 .85 1.44 1.29a6.32 6.32 0 002.13.53 3.19 3.19 0 01.91-.08 5.09 5.09 0 002.81-1.44 1.58 1.58 0 01.45-.68c-.25-.67.29-1.1.46-1.6A8.52 8.52 0 0014.78 8c-.26-.58-.92-.75-1.37-1.14-.06 0-.15 0-.15-.08a1.36 1.36 0 00-1.06-.02zm-3.42 4.32c-.11-.06-.11-.24-.15-.38.26-.07.12.24.15.38zm.08.3c0-.12.08 0 .08.08s-.08.01-.08-.07zm.46-2.05c0-.09.08 0 .08 0s-.08.05-.08.01zM11 7.21c-.2.26 0 .58.08.84-.32-.05-.59-.89-.08-.84zm.38 3.95s.05-.1.08-.08-.07.1-.09.08zm.74 2.84c0-.11.07 0 .15 0a.08.08 0 01-.15 0zm2.2-2.58c-.23-.06-.14.21-.38.15a1.57 1.57 0 01.23-.46c.14.07.18.18.16.35zm-1.14-3.8a2.75 2.75 0 01.61.38 2 2 0 00.38.53 20.57 20.57 0 01.15 2.35c-.26.1-.44.27-.68.38a4.44 4.44 0 01-1.9-.46c-.17-.26-.36-.5-.53-.76V9a4.2 4.2 0 00.46-.61c.23-.13.51-.2.45-.61a.38.38 0 01-.12-.19c.16 0 .25.16.38.23.37.02.46-.2.81-.15z"/>
  </symbol>
  <symbol id="facebook-icon" viewBox="0 0 14.96 27.72">
    <path d="M11.66 5.19a6.68 6.68 0 002.68-.3 8.12 8.12 0 00.62-3c-.19 0-.06-.34-.21-.4s-.28-.19-.31-.4c-.28-.16-.46-.42-.72-.6L11.56 0A13.56 13.56 0 009 .11 6.62 6.62 0 003.72 2.5c0 .08 0 .2-.1.2-.62 1.59-.13 3.62-.21 5.58.1.44.11 1 .2 1.39a18.82 18.82 0 01-3.4.5c-.31.33-.21 1.09-.21 1.7a15 15 0 00.41 1.59 3.53 3.53 0 00.83.5c.06 0 .07.08.1.1.51.27 1.45 0 2.27.1-.14 2 .26 3.92 0 5.68 0 .33.29.38.21.8A8.25 8.25 0 004 23.33a2.63 2.63 0 00-.41 1.79c.12 0 .11.16.1.3-.07.47.64.17.52.7.16.46-.43.18-.41.5v.9a6 6 0 002.27.2c.91-.42 2.19-.48 2.79-1.2a1.28 1.28 0 001.24-.2c0-.32.27-.33.21-.7s-.17-.5-.1-.9v-2.89c-.21-2.29 0-4.94-.31-7.18a9.1 9.1 0 002.58-.4 4.85 4.85 0 00.52-1.88 1.56 1.56 0 00.21-1c.19-.21.07-.73.1-1.1-.14-.6-.17-1.3-.83-1.39-.88-.24-2 .6-3 .3 0-1.13-.29-2.34 0-3.39.76-.18 1.46-.4 2.18-.6zM7.84 10a3.76 3.76 0 00.41.7c.08 0 .2 0 .21.1a10.32 10.32 0 003.1-.3A7.46 7.46 0 0111 13a10 10 0 01-2 .2c-.28.16-.37.51-.62.7 0 .44.14.5 0 .8-.2.14-.05.61-.21.8V17c.08.28-.15.26-.1.5v3.49c-.08.28.15.26.1.5v3c.06.27-.13.79.1.9-.07.36-.41 0-.82.1a7.66 7.66 0 01-1.55.4 2.81 2.81 0 00.31-1.1c0-.38-.37-.31-.52-.5.19-.64.56-1.12.72-1.79.2-.51.71-1.3.31-1.79-.52-.11-.52.29-.83.4 0 .08 0 .2-.1.2s0 .2-.1.2-.15.06 0 0 0-.2.1-.2 0-.2.1-.2v-.3a5.71 5.71 0 00.83-2 4.81 4.81 0 00.41-1 1.29 1.29 0 00.1-1.2 1 1 0 00-.93.7c-.32-.19.16-.43.1-.7.14-.23.17-.57.31-.8.2-.41.56-1.3 0-1.6a.66.66 0 00-.72.5 1.45 1.45 0 00-.52.7c-.37-.07-.14-.73-.21-1.1s.12-.9 0-1.2c-.56-.8-2-.11-3.2-.3a2.24 2.24 0 01-.1-1.2c1-.09 2.48.2 3.2-.2 0-.08 0-.2.1-.2.09-.72-.27-1-.51-1.4a17.1 17.1 0 00.1-3c.23-.14.33-.41.51-.6.11-1 .67-1.48.72-2.49-.27 0-.61-.05-.62.2-.3-.11-.38.48-.51.2-.11-.54.25-.63.31-1 .6-.42 1.21-.82 1.86-1.2 1.74-.24 4.65-.45 6.09.2.05.62-.29.85-.21 1.5h-1.44a30.6 30.6 0 00-3 1c-.24.07-.28.33-.52.4a5.91 5.91 0 01-.31 1c-.07 1.41.14 2.57.11 3.98z"/>
  </symbol>
  <symbol id="twitter-icon" viewBox="0 0 23.49 20.17">
    <path d="M23.45 4.08c-.23-.37-.91-.28-1.41-.37h-1.11a8.34 8.34 0 01.52-1 5.42 5.42 0 00.22-1.26c.13-.17.18-.42.3-.59s.24-.48.07-.67-.29-.19-.59-.19a.51.51 0 00-.22.15c-.45.43-.78 1-1.26 1.41h-.07c-.09 0 0 0-.08.07l-.37.22a3 3 0 01-.89.52A6.08 6.08 0 0016.71 2a6.44 6.44 0 00-3 .74 7.32 7.32 0 00-2.15 1.63c0 .32-.34.4-.37.74 0 0 0 .09-.07.07 0 .24-.05.34-.07.52s.2.43 0 .52a7.15 7.15 0 01-2.15-1 10.15 10.15 0 01-2.12-1.06A6 6 0 015 2.82c-.21-.31-.54-.5-.67-.89C4 1.77 4.16 1 3.59 1c-.32 0-.34.2-.44.37s-.36.23-.37.52c0 0 0 .09-.07.08a17.77 17.77 0 00-.52 3.26 3.07 3.07 0 00.59 1 1.11 1.11 0 00-.89.52 3.72 3.72 0 00.74 2.3 2.94 2.94 0 00.59 1c0 .23.21.29.3.45s.12.12.15.22.29.18.07.22c-.41.13-1 .07-1.26.37a1.92 1.92 0 000 1.11c0 .24.28.26.3.52a18.31 18.31 0 001.63 1.11 15.23 15.23 0 001.85.37 1.44 1.44 0 01-.59.74 19.23 19.23 0 01-2.74.74c-.56 0-1 .23-1.56.22-.33.13-.85.08-1.11.22s-.1.1-.22.22a.72.72 0 00.44.89c0 .25.22.28.37.37a.8.8 0 00.44.37 10.58 10.58 0 001.93 1.11c.83.18 1.65.38 2.52.52s1.9.12 2.82.22h1a9.91 9.91 0 001.85.07c.09-.1.32-.07.52-.07a9.28 9.28 0 001.63-.74c.57-.24 1-.64 1.56-.89a10 10 0 002.52-2.37 1.66 1.66 0 00.45-.74c.26-.16.38-.45.59-.67a9.92 9.92 0 001-1.41c.32-.5.58-1.05.89-1.56 0-.41.31-.48.3-.89.19-.23.18-.66.37-.89a1.38 1.38 0 01.07-.59A12.15 12.15 0 0021 5.94a5.74 5.74 0 001.63-.59c.53-.19 1.01-.59.82-1.27zM20 8.16a4.73 4.73 0 01-1 2c.06.38-.1.54-.07.89a4.31 4.31 0 00-.37 1c-.2.27-.33.61-.52.89-.37.55-.78 1.05-1.19 1.56s-.91 1-1.33 1.48-.94.88-1.41 1.33a5 5 0 00-1.26.67 5 5 0 00-.67.3c-.18.15-.5.14-.67.3a24 24 0 01-3.51.18 26.33 26.33 0 01-3-.37 11.79 11.79 0 01-2.3-1c.15-.24.63-.15 1-.22 0-.17.39 0 .44-.15.26.06.29-.11.52-.07a9.52 9.52 0 001.7-.59c.28-.14.41-.43.67-.59a.74.74 0 01.22-.44c0-.28.2-.44.15-.82.11-.21.3-.34.3-.67-.07-.15-.13-.32-.3-.37s-.38-.07-.44-.22a1.37 1.37 0 01-.59-.08c-.15 0-.49.09-.52-.07A3.61 3.61 0 014 12.36c.43-.26 1-.35 1.33-.74.52-.08 1.06-.13 1.11-.67 0-.72-.77-.66-1.33-.82a12.12 12.12 0 01-1.89-2.56c.24-.16.56-.23.74-.44.45.06.54-.25.67-.52 0-.49-.33-.61-.59-.81a3.5 3.5 0 01-.67-.8 18.47 18.47 0 01.07-2.37c.06 0 .07 0 .07.07.23.44.56.77.82 1.19A8.87 8.87 0 005.89 5c.45.41 1.11.62 1.56 1a16.41 16.41 0 011.7 1c.67.19 1.06.67 2 .59l.59-.3c.26-.46-.06-1.08.15-1.63a4.35 4.35 0 011.26-1.48 7.81 7.81 0 00.85-.54 4.82 4.82 0 001-.37 6.26 6.26 0 001-.15h1.26a7 7 0 00.74.15 1.83 1.83 0 00.67.37 4.47 4.47 0 011.41 3A10.23 10.23 0 0020 8.16zm.3-5.63c-.13.34-.23.71-.59.82 0-.11-.12-.12-.15-.22s.21-.19.3-.3.25-.25.44-.3c.03-.09.15-.05.04 0zm-5.48 3a1.36 1.36 0 00.52.37.71.71 0 00.59.37c0-.15.35 0 .37-.22.17 0 .17-.23.3-.3a2.36 2.36 0 00-.37-1.33.93.93 0 00-1.37 1.15z"/>
  </symbol>
  <symbol id="htmlacademy-icon" viewBox="0 0 154.38 195.33">
    <path
      d="M78,.59,77.19.5.5,8.54V149.11l76.69,45.63,76.69-45.63V8.54Zm65.86,142.82L77.19,183.07,10.53,143.41V85.79L76.91,125.3l.11,7.16-45.53-27.1-.07,7,45.71,27.47.11,7.35-45.7-27.19-.07,7,45.71,27.47,46.15-27.62v-7l-.06,0V97.1l20.57-12.28Zm-.05-66.06L125.56,88.09l-8.42,5L77,69.17l-.07,7,34.32,20.41-.3.18-.74.44L105.33,100,77,83.16l-.07,7,22.36,13.3L94,106.94l-.13.08L77,97.06l-.07,7L88,110.54l-11.29,6.78-66-39.26L76.82,38.31h0Zm.05-7-67-39.51h0L10.53,70.31V17.58l66.66-7,66.66,7Z" />
  </symbol>
</svg>