<svg xmlns="http://www.w3.org/2000/svg" width="149" height="72" fill="#000" viewBox="0 0 148.05 72.71"><path d="M143.16 31.4a39 39 0 01-4.66 2.78 17.33 17.33 0 00-.59-5.13l.15-1c.37-3 .66-7.12-2-9.22-.33-.26-1.25 0-1.92.27a4.57 4.57 0 00-.5-.41q-.12-.36-.23-.74c0-.12-.17-.19-.36-.21.29-.38.26-.82-.42-1.09-.38-.15-.76-.29-1.14-.41-.07-.07-.13-.1-.17-.06a22.22 22.22 0 00-2.86-.71 5.1 5.1 0 01.55-1 5 5 0 01.43-.44l.19-.17.07-.06.08-.06c.38-.29.85-.86.22-1.2a2.1 2.1 0 00-2 .24 6.57 6.57 0 00-2.09 2.36 50.07 50.07 0 00-6.08-.08.77.77 0 00.14-.25c.18-.58-.91-.52-1.19-.49l-4.69.6c1.37-3.77 3.08-8.58 1-12.26C113.89.55 111.18.08 109 0a13.71 13.71 0 00-7 1.64c-4.76 2.62-7.11 7.71-8.21 13.14a1.84 1.84 0 00-2.64.47c-.12.32-.23.64-.33 1a1.46 1.46 0 00-.34.64v.17h-.2l.06-.31a.68.68 0 00.28-.37c.57-2.3 1.16-4.59 1.95-6.82.27-.76-2.51-.4-2.8.43-.42 1.19-.79 2.4-1.12 3.62a.91.91 0 00-.43.33v.1a.9.9 0 00-.47-.18v-1c0-.43-2.82 0-2.82.76v1.58a2.34 2.34 0 00-.47.27l-.19.17a.37.37 0 00-.12.24L84 16l-.05.07a.31.31 0 000 .47 1.13 1.13 0 00.74.16h.15v.47h-.67l-.41-.05c0-.39-.68-.45-1.35-.33a.54.54 0 000-.15c-.1-.6-.17-1.19-.23-1.79a3.1 3.1 0 00.68-.31c.16-.1.33-.22.33-.43v-.19c0-.18-.41-.2-.5-.21a2.81 2.81 0 00-.59 0c-.1-1.33-.1-2.64-.1-3.95 0-.84-2.82-.31-2.82.76a51.55 51.55 0 00.19 5.34h-.27v-1.52c0-1-1.3-1.22-2.15-.81a1 1 0 00.37-1 30.28 30.28 0 01-1-4.29c-.19-1.39-3-.68-2.82.76a30.21 30.21 0 001 4.29c.24.83 1.34.89 2.1.51a1 1 0 00-.37.76v.63a1.65 1.65 0 00-.77-.16c-1.06 0-1.67.89-1.4 1.48l-.49-.08a14.1 14.1 0 01-.71-3.83c0-.94-1.27-1-2.11-.67a.57.57 0 000-.17 13 13 0 01-.78-2.53c-.33-1.35-3.16-.6-2.82.76a19.66 19.66 0 00.52 1.9h-.06a2.65 2.65 0 00-.85.39c-.83.08-1.83.56-1.75 1.21.06.48.13 1 .21 1.43l-1.64.26a11.88 11.88 0 01-.62-2.44c-.13-.92-1.56-.85-2.33-.26a22.54 22.54 0 00-3.12-5.76C54.79 3.22 50.32 2 46.17 2.87a9 9 0 00-5 2.65 5.94 5.94 0 00-1.17 4.8 19.12 19.12 0 001.58 6 2.47 2.47 0 00-.95.14c-.28.12-.56.25-.83.39-1.94 0-3.88 0-5.8-.07-4.18-.19-8.3-.86-12.5-.74-.92 0-1.53.72-1.46 1.26a4.31 4.31 0 00-2.14 2.29 54 54 0 00-5.33-3.21c-.69-.35-3.3.71-2.29 1.22a53 53 0 015.28 3.22 2.19 2.19 0 001.84-.07l.16-.08a9.72 9.72 0 00.24 4.49.56.56 0 00.17.27 9.39 9.39 0 000 1v.17a1.2 1.2 0 00-.76.84 37.37 37.37 0 00-.31 4.23 1.09 1.09 0 00-.48.8 49.93 49.93 0 00.47 10 72.7 72.7 0 001.17 8q.09.62.17 1.25a9.69 9.69 0 00-.24 3.48c-.88.17-1.73.87-1.23 1.62a9.1 9.1 0 002.61 2.65 2.31 2.31 0 00-1.87.55c-.82.81-1.71 1.53-2.53 2.34-.43.42-.31.93.29 1.08a2.3 2.3 0 002-.54c.74-.9 1.65-1.6 2.47-2.4a.64.64 0 00.2-.73c3.21 1.73 7.24 1.23 11.07.94a34.53 34.53 0 00-2.17 5c-.26.72 2.51.37 2.8-.44a33.31 33.31 0 012.1-4.9c3.74.12 7.48.12 11.21.05a1.08 1.08 0 00.75.34 34.47 34.47 0 009.69-.7c4.79-.23 9.58-.53 14.37-.81 7.53-.19 15.06-.35 22.59-.32l.31.32a1.31 1.31 0 001 .33h.2c.71 0 1.43.09 2.14.15a1.82 1.82 0 00.56 0l2.35.21a1.15 1.15 0 00.79.36c3.8.25 7.61.52 11.42.7a1 1 0 00.82.34c7.07.06 15.28 2.8 21.56-1.74.5-.36.27-.88-.26-1h-.33a60.74 60.74 0 002.94-8.55 1.08 1.08 0 00.65-.86 34.42 34.42 0 01.37-3.64q.25-1.33.44-2.66c.39-2.17.81-4.37 1-6.54a50.09 50.09 0 006.7-3.81c1.56-1.12-.79-1.89-1.84-1.14zm-55.33-15l-.13.12q.11-.47.23-.93H88z"/><path d="M63.26 12.63c.13.2.56.22.75.22a2.94 2.94 0 001.11-.22c.4-.17 1.1-.56.77-1.07s-.61-1.19-1-1.75c-.13-.2-.56-.22-.75-.22a2.92 2.92 0 00-1.1.23c-.4.17-1.1.56-.77 1.07s.63 1.17.99 1.74zM20.68 10.91c.22.65 1.11.65 1.65.5s1.39-.62 1.17-1.26a4.66 4.66 0 00-.89-1.78 1.71 1.71 0 00-1.9-.15c-.41.19-1.18.84-.69 1.35a3.09 3.09 0 01.66 1.34zM30.66 13.9c.84 0 3.07-1.28 1.19-1.28-.85 0-3.08 1.28-1.19 1.28zM122.56 12.27a2.3 2.3 0 001.05-.06 2.15 2.15 0 00.94-.48 5.06 5.06 0 001-1.18c.1-.2.17-.4 0-.59a1.1 1.1 0 00-.76-.25 2.69 2.69 0 00-1.11.22 1.55 1.55 0 00-.76.55 3 3 0 01-.35.51l-.2.2c-.16.16-.35.36-.28.61s.26.43.47.47zM135.86 17.69a3.62 3.62 0 001.89-.66 21.16 21.16 0 003.62-3.64c.29-.39-1-.24-1.12-.23a2.73 2.73 0 00-1.66.75 19.69 19.69 0 01-3.39 3.37c-.49.41.45.43.66.41zM146.74 44.77h-4.87a1.6 1.6 0 00-1.56 1.14c-.09.74.75.92 1.3.92h4.87a1.61 1.61 0 001.52-1.14c.13-.69-.71-.92-1.26-.92zM57 60.79c-.5.08-1.41.3-1.64.83A34.63 34.63 0 0054 65.51c-.21.73 2.57.33 2.8-.45a34.64 34.64 0 011.36-3.9c.24-.52-.95-.41-1.16-.37zM61.6 63.38a4.54 4.54 0 00-2 .54c-.14.08-.34.2-.34.39a3.16 3.16 0 010 .35.75.75 0 01-.12.29c-.06.08-.11.18 0 .25a1.27 1.27 0 00.71.06A4.72 4.72 0 0061 65a2.06 2.06 0 00.79-.41 1 1 0 00.28-.5 2.67 2.67 0 000-.53c.02-.18-.4-.18-.47-.18zM116.65 67.05c-.35-.69-3 .33-2.82.76.84 1.64 1.94 3.12 2.92 4.68.44.69 3-.41 2.82-.76-.98-1.56-2.07-3.04-2.92-4.68zM120.74 64.71c-.29-.59-1.07-.56-1.62-.41-.35.09-1.49.6-1.2 1.17l1.17 2.34c.29.59 1.07.56 1.62.41.35-.09 1.49-.6 1.2-1.17zM5.67 43.11c-1.49.36-3 .57-4.48 1-.54.15-1.34.64-1.16 1.32s1.13.71 1.66.56c1.48-.4 3-.62 4.48-1 .54-.13 1.34-.65 1.16-1.32s-1.12-.67-1.66-.56z"/><path fill="#fff" d="M43.75 40.11c-.08-2.71-.51-5.4-.48-8.11 0-2.19.39-4.45-.36-6.55 0-.24.1-.48.14-.72.2-1.06-3.3-.5-3.85.47-.35.28-.52.62-.38 1l.1.26a79 79 0 01-2.65 9.5c-.41 1.2-.9 2.37-1.31 3.57a35.78 35.78 0 01-1.66-3.41c-1.39-3.46-2.64-7-4.33-10.3.19-1.54-3.23-1.38-3.91 0a8.72 8.72 0 00-.44 5.26 45.74 45.74 0 01.38 6.16c0 4 .36 8 .42 12a1 1 0 00-.09 1.39 3.16 3.16 0 00.58.55c.91.73 3.53.11 3.53-1.28 0-4.16-.31-8.31-.42-12.47v-1.22l.17.44a34.29 34.29 0 002.2 4.7 21.58 21.58 0 011.82 4.72.78.78 0 00-.23.71c0 .18.07.29.25.36.64.55 1.86.28 2.53 0a6.18 6.18 0 00.83-.43c.35-.21.89-.69.73-1.17l-.09-.28a24.52 24.52 0 001-4 25.08 25.08 0 011.31-4.17c.05.62.11 1.25.16 1.87.21 2.58 0 5.12 0 7.7a11.74 11.74 0 00.22 2.48 10.67 10.67 0 01.28 1.9.78.78 0 00.39 1.45 3.35 3.35 0 002.79-.75c1.21-1.12.64-2.87.36-4.28-.47-2.3.09-4.95.01-7.35zM52.19 40.79c-.07-2-.77-3.9-.78-5.93a49.11 49.11 0 00-.16-6.95c-.11-.73-4.09.1-4 1.06a39.26 39.26 0 01.16 6.41 39.49 39.49 0 00.74 6c.27 2.07-.08 4.2.15 6.27.11 1 .76 2.77.09 3.61-.42.54 1.48.34 1.57.33a3.9 3.9 0 002.32-1c.66-.83.2-2.45.05-3.39a55.43 55.43 0 01-.14-6.41zM68.67 37.44c-2.08-2.81-5.94-.79-8.64-1.55-1.39-.4-1.41-2.29-1.4-3.43a35.46 35.46 0 00-.28-4.18 3.44 3.44 0 01.75-2.93 4.36 4.36 0 01.82-.34 8 8 0 011.08-.1c1.56-.07 4.65.23 4.06 2.51-.27 1 3.63.44 3.91-.64 1.22-4.64-7.35-3.75-9.77-3.11-2.23.59-4.69 1.86-4.82 4.44-.06 1.23.27 2.4.33 3.62.06 1.4-.2 2.8.29 4.15 1.09 3 5.57 1.59 7.85 1.76 3.88.29 2.72 5.52 2.77 8 0 1.3 1.19 3.46.21 4.55-.6.67-2 .71-2.82.77s-2.22.32-2.77-.46c-1-1.43.09-3.83-.12-5.47-.12-.93-4.1-.1-4 1.06.35 2.65-1.41 6.2 2.42 6.65a18.24 18.24 0 007.57-.94 8.91 8.91 0 003.27-1.81c1-.95.7-2.37.42-3.58-.63-2.99.79-6.41-1.13-8.97zM86.15 37.25c-.12-3.81-.7-7.58-.71-11.4 0-2-4-1.32-4 .35 0 3.64.5 7.23.69 10.86v.22c-2 0-3.93.18-5.9.25.2-4.68-.62-9.31-.44-14 0-.59-3.91-.09-4 1.06-.17 4.52.59 9 .46 13.51-.06 2.15-.25 4.3-.26 6.46a21.88 21.88 0 00.33 3.29 8.4 8.4 0 01.18 3.35c-.24.78 3.59.29 3.9-.7.55-1.79-.22-4.08-.41-5.89a31 31 0 01.08-5.3 30 30 0 016.13 0q.13 2.09.32 4.17c.11 1.17.18 2.33.2 3.51a10.66 10.66 0 01-.22 3.49c-.78 2.08 3.18 1.91 3.76.37.71-1.89.51-4.24.39-6.22-.09-2.46-.42-4.91-.5-7.38zM103.24 41.76a74.52 74.52 0 00-3.65-7.87c1-2 2-3.93 3-5.94.84-1.82 1.46-3.85 3.11-5.14.58-.45.55-.9-.26-1a4.49 4.49 0 00-2.79.75 10.84 10.84 0 00-3.23 4.31C98.44 29 97.46 31 96.44 33l-.23.45a1.16 1.16 0 00-.64 1.28c-.8 1.58-1.61 3.15-2.52 4.65-.3-5.58-1-11.16-1.16-16.75 0-1.28-4-.48-4 1.06.25 6.93 1.23 13.85 1.3 20.77v.05c-.3.31-.19.5.05.61 0 1.77-.06 3.53-.21 5.3-.48.75.47 1.15 1.09 1.15h.1c.75 0 2.65-.35 2.74-1.38a63.31 63.31 0 00.23-6.35 31.7 31.7 0 004.09-5.69 29.78 29.78 0 012 4.62c.87 2.77 2.32 5.31 3.16 8.09.55 1.82 4.5.75 4-1.06-.88-2.73-2.26-5.29-3.2-8.04zM127 37.09c-.21-.84-1.38-.86-2.29-.78v-1c-.13-2.69-.17-5.43-.4-8.1-.21-2.48-1.6-3.37-4-3.28a24.49 24.49 0 00-7.55 1.42 7.06 7.06 0 00-4.6 5.73c-.56 3 .24 6.27.38 9.33.16 3.54.07 7.08.06 10.61 0 .58 4 0 4-1.06v-8.4c0-.83-.05-1.65-.1-2.47 1.38-.6 3.72 0 5.1.14a15.32 15.32 0 003.27-.29c0 2.33.11 4.68.21 7 0 1.19.48 3.56-.36 4.55-.44.52 1.49.35 1.57.33a4 4 0 002.32-1.05c1-1.13.46-3.82.41-5.17-.08-1.93-.1-3.86-.14-5.79 1.02-.15 2.3-.87 2.12-1.72zm-14.75-.15c-.1-1.26-.22-2.51-.31-3.78-.16-2.35.12-5.63 2.31-7.06a7.22 7.22 0 012.38-.44 3.7 3.7 0 012.85.19c1.22.81.92 3.69.92 4.91 0 2 .21 4 .31 6.06a13.84 13.84 0 01-1.7.08c-2.34-.06-4.62-.42-6.8.03zM48.77 25.18a3.19 3.19 0 001.49-.53l.26-.22c.52-.34 1-.83.73-1.37a7.79 7.79 0 01-.42-3.45c0-1-1-1.26-1.8-1.18S46.85 19 46.84 20a16.07 16.07 0 00.16 3 2.34 2.34 0 00-.11.36.7.7 0 00.14.6V24.43a.91.91 0 00.43.53 2.19 2.19 0 001.31.22z"/></svg>