<svg xmlns="http://www.w3.org/2000/svg" width="113" height="46" viewBox="0 0 112.39 46.09"><path d="M110.23 41.88c4.39.87.84-35.86.15-38.31C108.42-3 83.7 1.43 78.2 1.85c-12.72 1-25.19-1-37.61-.38-6.21.29-34.85-1.81-37.52 2C-2 10.67.41 29.26 1.79 38.54c-4 .78 2.31 4.15 3.14 4.9 6.31 2.19 16.36-.22 23 .4 15.43 1.47 31.8-2.19 47.28-1 4.5 1.14 9.6 1 14.22 1.24 3.41 5.57 19.66-2.46 20.8-2.24z"/><path fill="#fff" d="M26.06 24.41c-.08-2.55-.48-5.07-.45-7.62 0-2.06.37-4.18-.34-6.16 0-.22.09-.45.13-.67.18-1-3.1-.47-3.62.44-.33.27-.49.58-.35.91l.1.25A74.39 74.39 0 0119 20.47c-.38 1.13-.84 2.23-1.23 3.35a33.77 33.77 0 01-1.56-3.21c-1.3-3.26-2.48-6.55-4.07-9.69.18-1.45-3-1.3-3.67 0a8.21 8.21 0 00-.42 4.95 43.09 43.09 0 01.36 5.8c0 3.77.34 7.54.4 11.31a1 1 0 00-.09 1.3 3 3 0 00.54.52c.86.69 3.32.1 3.32-1.21 0-3.91-.29-7.82-.4-11.73v-1.15l.16.41a32.14 32.14 0 002.07 4.42A20.35 20.35 0 0116.14 30a.74.74 0 00-.22.67c0 .17.07.28.24.34.61.52 1.75.26 2.38 0a5.72 5.72 0 00.78-.4c.33-.2.84-.64.69-1.1l-.08-.26a23 23 0 00.92-3.73 23.53 23.53 0 011.23-3.92c0 .59.1 1.18.15 1.76.19 2.42 0 4.81 0 7.24a11 11 0 00.21 2.4 10 10 0 01.27 1.79.74.74 0 00.37 1.36 3.15 3.15 0 002.63-.71c1.14-1 .6-2.7.34-4-.44-2.28.08-4.77.01-7.03zM34 25.05c-.07-1.89-.73-3.67-.73-5.57a46.19 46.19 0 00-.15-6.53c-.1-.69-3.85.09-3.72 1a36.88 36.88 0 01.15 6 37 37 0 00.69 5.6c.25 2-.08 3.95.14 5.9.1.91.71 2.6.08 3.4-.4.5 1.39.32 1.47.31a3.67 3.67 0 002.19-1c.62-.78.19-2.3.05-3.18a52.18 52.18 0 01-.17-5.93zM49.49 21.9c-2-2.64-5.59-.74-8.12-1.46-1.31-.37-1.37-2.16-1.37-3.22a33.43 33.43 0 00-.26-3.93 3.23 3.23 0 01.71-2.76 4.19 4.19 0 01.77-.32 7.6 7.6 0 011-.09c1.47-.06 4.38.22 3.81 2.36-.25 1 3.41.41 3.68-.6 1.15-4.36-6.91-3.53-9.19-2.92-2.1.56-4.41 1.75-4.53 4.17-.06 1.16.26 2.26.31 3.4a12.64 12.64 0 00.27 3.91c1 2.83 5.24 1.5 7.38 1.66 3.65.27 2.56 5.19 2.61 7.48 0 1.22 1.12 3.25.2 4.28-.57.63-1.88.66-2.65.73s-2.09.3-2.6-.44c-.94-1.34.09-3.61-.11-5.15-.11-.88-3.86-.09-3.72 1 .33 2.49-1.33 5.83 2.28 6.26a17.14 17.14 0 007.12-.88 8.38 8.38 0 003.08-1.7c1-.89.66-2.23.4-3.37-.56-2.78.74-5.97-1.07-8.41zM65.93 21.72c-.11-3.58-.65-7.13-.67-10.72 0-1.87-3.76-1.24-3.75.32 0 3.42.47 6.8.65 10.22v.21c-1.85 0-3.7.17-5.55.23.19-4.4-.58-8.76-.41-13.15 0-.55-3.68-.09-3.72 1-.16 4.25.56 8.46.43 12.71-.06 2-.23 4-.25 6.07a20.59 20.59 0 00.31 3.1 7.91 7.91 0 01.17 3.15c-.22.73 3.38.28 3.67-.66.52-1.69-.21-3.83-.38-5.54a29.2 29.2 0 01.08-5 28.26 28.26 0 015.77 0c.08 1.31.19 2.61.3 3.92.1 1.1.17 2.19.19 3.3a10 10 0 01-.21 3.28c-.73 2 3 1.79 3.53.35.67-1.78.48-4 .36-5.85-.13-2.31-.45-4.66-.52-6.94zM82 26a70.33 70.33 0 00-3.43-7.4c1-1.85 1.92-3.7 2.78-5.59.79-1.72 1.37-3.62 2.92-4.83.54-.42.52-.85-.24-.9a4.22 4.22 0 00-2.63.7 10.2 10.2 0 00-3 4.05c-.88 1.95-1.8 3.86-2.76 5.76l-.21.42a1.09 1.09 0 00-.61 1.2c-.75 1.48-1.52 3-2.37 4.37-.28-5.25-.91-10.5-1.09-15.75 0-1.2-3.77-.46-3.71 1 .23 6.52 1.16 13 1.22 19.54-.29.29-.18.47.05.57 0 1.66-.06 3.32-.2 5-.45.71.44 1.08 1 1.08h.09c.7 0 2.49-.33 2.58-1.29.18-2 .24-4 .22-6a29.83 29.83 0 003.85-5.35A28.05 28.05 0 0178.29 27c.82 2.6 2.18 5 3 7.6.52 1.71 4.23.7 3.72-1-.83-2.6-2.13-5.05-3.01-7.6zM104.31 21.57c-.2-.79-1.3-.81-2.16-.73v-1c-.12-2.53-.16-5.1-.37-7.62-.2-2.33-1.5-3.17-3.77-3.08a23 23 0 00-7.1 1.33 6.64 6.64 0 00-4.33 5.39c-.52 2.86.23 5.9.35 8.77.15 3.32.06 6.66.06 10 0 .54 3.72 0 3.72-1v-7.9c0-.78 0-1.55-.1-2.32 1.3-.56 3.5 0 4.79.13a14.42 14.42 0 003.08-.28c0 2.19.1 4.4.19 6.59 0 1.12.45 3.35-.33 4.28-.41.49 1.41.33 1.47.31a3.75 3.75 0 002.19-1c.9-1.06.43-3.6.38-4.86-.07-1.81-.1-3.63-.13-5.44 1.06-.14 2.26-.76 2.06-1.57zm-13.87-.14c-.1-1.18-.21-2.36-.29-3.55-.15-2.21.11-5.3 2.17-6.64a6.81 6.81 0 012.24-.42 3.48 3.48 0 012.68.18c1.15.76.87 3.47.86 4.62 0 1.9.2 3.8.29 5.7a13.18 13.18 0 01-1.6.07c-2.16-.05-4.3-.39-6.36.04zM30.78 10.37a3 3 0 001.4-.5l.24-.21c.49-.32.92-.78.69-1.29a7.32 7.32 0 01-.39-3.24C32.73 4.23 31.81 4 31 4s-2 .57-2 1.46a15.11 15.11 0 00.1 2.84 2.12 2.12 0 00-.1.34.65.65 0 00.14.56v.45a.86.86 0 00.41.5 2.06 2.06 0 001.23.22z"/></svg>