<svg xmlns="http://www.w3.org/2000/svg" width="60" height="60" fill="#149080" viewBox="0 0 60 59.62"><path d="M0 43.68l27.44 15.93V36.27L0 20.33zm51.35-31.24v2.45c0 1.82-3.46 3.29-7.73 3.29s-7.73-1.47-7.73-3.29v-4.06c.26 1.71 3.6 3.07 7.7 3.07 4.27 0 7.73-1.47 7.73-3.28s-3.46-3.29-7.73-3.29h-1l-5-2.89v3.12c0 1.82-3.45 3.29-7.72 3.29a12.65 12.65 0 01-6.43-1.47 3.94 3.94 0 00-.73-.59 1.8 1.8 0 01-.57-1.24v-3l-4.76 2.81h-1.05c-4.27 0-7.73 1.47-7.73 3.29s3.46 3.28 7.73 3.28c4.1 0 7.45-1.36 7.7-3.07v4.06c0 1.82-3.45 3.29-7.73 3.29s-7.7-1.5-7.7-3.32v-2.42l-6 3.45 27.53 16L57.53 16zM37.7 22.6c0 1.82-3.46 3.29-7.73 3.29s-7.73-1.47-7.73-3.29v-4.06c.26 1.71 3.6 3.08 7.71 3.08s7.44-1.36 7.7-3.08v4.06zm-5.14 13.88v23.14L60 43.68V20.54zM29.92 6.57c4.27 0 7.72-1.47 7.72-3.29S34.18 0 29.92 0s-7.73 1.47-7.73 3.29 3.46 3.29 7.73 3.29"/></svg>